<?xml version="1.0" standalone="no"?><!DOCTYPE svg PUBLIC "-//W3C//DTD SVG 1.1//EN" "http://www.w3.org/Graphics/SVG/1.1/DTD/svg11.dtd"><svg t="1774421087457" class="icon" viewBox="0 0 1024 1024" version="1.1" xmlns="http://www.w3.org/2000/svg" p-id="11876" xmlns:xlink="http://www.w3.org/1999/xlink" width="200" height="200"><path d="M841.57 280.37c32.06-10.15 55.16-40.45 54.41-76.03-0.87-41.85-35.24-75.86-77.09-76.33-33.85-0.38-62.8 20.82-73.96 50.69l-394.38 35.85-86.5-86.5C105.52 286.58 93.81 536.32 228.9 708.33l-90.72 201.09c-4.78 10.59 2.97 22.58 14.58 22.58h258.92c10.35 0 17.98-9.68 15.56-19.74l-16.17-67.21c157.88 63.1 345.03 30.74 472.87-97.1l-92.41-92.41 50.04-375.17z m-66.76 16.39l-40.24 301.81-137-137 177.24-164.81z m-36.79-53.18l-185.73 172.7-142.84-142.83 328.57-29.87z" p-id="11877" fill="#529b2e"></path></svg>